<svg width="34" height="24" viewBox="0 0 34 24" fill="none" xmlns="http://www.w3.org/2000/svg">
<path d="M21.2846 1.11006H12.7156C11.6797 1.10969 10.6539 1.29194 9.69676 1.64641C8.73964 2.00088 7.86996 2.52062 7.13742 3.17592C6.40487 3.83122 5.82382 4.60926 5.42745 5.46556C5.03109 6.32186 4.82719 7.23964 4.82739 8.16648V15.8335C4.82698 16.7604 5.03073 17.6784 5.427 18.5348C5.82327 19.3913 6.40429 20.1695 7.13686 20.8249C7.86942 21.4804 8.73917 22.0003 9.6964 22.3548C10.6536 22.7094 11.6796 22.8917 12.7156 22.8913H21.2846C22.3206 22.8917 23.3465 22.7094 24.3037 22.3548C25.2609 22.0003 26.1307 21.4804 26.8633 20.8249C27.5958 20.1695 28.1769 19.3913 28.5731 18.5348C28.9694 17.6784 29.1731 16.7604 29.1727 15.8335V8.16648C29.1731 7.23952 28.9694 6.32158 28.5731 5.46512C28.1769 4.60866 27.5958 3.83046 26.8633 3.175C26.1307 2.51955 25.2609 1.99969 24.3037 1.64513C23.3465 1.29057 22.3206 1.10827 21.2846 1.10864V1.11006Z" stroke="#27374D" stroke-width="1.5"/>
<path d="M29.0429 17.0829H31.6063C32.0367 17.0829 32.4495 16.9299 32.7539 16.6576C33.0582 16.3853 33.2292 16.016 33.2292 15.6308V8.37042C33.2292 7.9853 33.0582 7.61596 32.7539 7.34364C32.4495 7.07132 32.0367 6.91833 31.6063 6.91833H29.0413M4.95879 17.0829H2.39379C2.18067 17.0829 1.96963 17.0454 1.77273 16.9724C1.57583 16.8994 1.39692 16.7925 1.24622 16.6576C1.09551 16.5228 0.97597 16.3627 0.894411 16.1865C0.812852 16.0103 0.770874 15.8215 0.770874 15.6308V8.37042C0.770874 7.9853 0.941859 7.61596 1.24622 7.34364C1.55057 7.07132 1.96337 6.91833 2.39379 6.91833H4.95879" stroke="#27374D" stroke-width="1.5"/>
<path d="M2.37793 6.91844V1.11011M31.6063 6.91844L31.5904 1.11011M20.2142 10.5479H23.4584M12.1313 8.87769V11.7819M13.7542 16.3563C14.6172 17.1228 15.784 17.5529 17 17.5529C18.216 17.5529 19.3828 17.1228 20.2458 16.3563" stroke="#27374D" stroke-width="1.5" stroke-linecap="round" stroke-linejoin="round"/>
</svg>
