<svg width="122" height="48" viewBox="0 0 122 48" fill="none" xmlns="http://www.w3.org/2000/svg">
<path d="M55.952 27.872H51.504L50.768 30H48.416L52.432 18.816H55.04L59.056 30H56.688L55.952 27.872ZM55.344 26.08L53.728 21.408L52.112 26.08H55.344ZM62.7971 18.16V30H60.5571V18.16H62.7971ZM67.2503 18.16V30H65.0103V18.16H67.2503ZM72.7319 24.4C72.7319 23.3013 72.9772 22.32 73.4679 21.456C73.9692 20.5813 74.6465 19.904 75.4999 19.424C76.3639 18.9333 77.3292 18.688 78.3959 18.688C79.6439 18.688 80.7372 19.008 81.6759 19.648C82.6145 20.288 83.2705 21.1733 83.6439 22.304H81.0679C80.8119 21.7707 80.4492 21.3707 79.9799 21.104C79.5212 20.8373 78.9879 20.704 78.3799 20.704C77.7292 20.704 77.1479 20.8587 76.6359 21.168C76.1345 21.4667 75.7399 21.8933 75.4519 22.448C75.1745 23.0027 75.0359 23.6533 75.0359 24.4C75.0359 25.136 75.1745 25.7867 75.4519 26.352C75.7399 26.9067 76.1345 27.3387 76.6359 27.648C77.1479 27.9467 77.7292 28.096 78.3799 28.096C78.9879 28.096 79.5212 27.9627 79.9799 27.696C80.4492 27.4187 80.8119 27.0133 81.0679 26.48H83.6439C83.2705 27.6213 82.6145 28.512 81.6759 29.152C80.7479 29.7813 79.6545 30.096 78.3959 30.096C77.3292 30.096 76.3639 29.856 75.4999 29.376C74.6465 28.8853 73.9692 28.208 73.4679 27.344C72.9772 26.48 72.7319 25.4987 72.7319 24.4ZM87.7971 18.16V30H85.5571V18.16H87.7971ZM98.2503 25.376C98.2503 25.696 98.2289 25.984 98.1863 26.24H91.7063C91.7596 26.88 91.9836 27.3813 92.3783 27.744C92.7729 28.1067 93.2583 28.288 93.8343 28.288C94.6663 28.288 95.2583 27.9307 95.6103 27.216H98.0263C97.7703 28.0693 97.2796 28.7733 96.5543 29.328C95.8289 29.872 94.9383 30.144 93.8823 30.144C93.0289 30.144 92.2609 29.9573 91.5783 29.584C90.9063 29.2 90.3783 28.6613 89.9943 27.968C89.6209 27.2747 89.4342 26.4747 89.4342 25.568C89.4342 24.6507 89.6209 23.8453 89.9943 23.152C90.3676 22.4587 90.8903 21.9253 91.5623 21.552C92.2343 21.1787 93.0076 20.992 93.8823 20.992C94.7249 20.992 95.4769 21.1733 96.1383 21.536C96.8103 21.8987 97.3276 22.416 97.6903 23.088C98.0636 23.7493 98.2503 24.512 98.2503 25.376ZM95.9303 24.736C95.9196 24.16 95.7116 23.7013 95.3063 23.36C94.9009 23.008 94.4049 22.832 93.8183 22.832C93.2636 22.832 92.7943 23.0027 92.4103 23.344C92.0369 23.6747 91.8076 24.1387 91.7223 24.736H95.9303ZM99.3092 25.536C99.3092 24.64 99.4852 23.8453 99.8372 23.152C100.2 22.4587 100.685 21.9253 101.293 21.552C101.912 21.1787 102.6 20.992 103.357 20.992C104.019 20.992 104.595 21.1253 105.085 21.392C105.587 21.6587 105.987 21.9947 106.285 22.4V21.136H108.541V30H106.285V28.704C105.997 29.12 105.597 29.4667 105.085 29.744C104.584 30.0107 104.003 30.144 103.341 30.144C102.595 30.144 101.912 29.952 101.293 29.568C100.685 29.184 100.2 28.6453 99.8372 27.952C99.4852 27.248 99.3092 26.4427 99.3092 25.536ZM106.285 25.568C106.285 25.024 106.179 24.56 105.965 24.176C105.752 23.7813 105.464 23.4827 105.101 23.28C104.739 23.0667 104.349 22.96 103.933 22.96C103.517 22.96 103.133 23.0613 102.781 23.264C102.429 23.4667 102.141 23.7653 101.917 24.16C101.704 24.544 101.597 25.0027 101.597 25.536C101.597 26.0693 101.704 26.5387 101.917 26.944C102.141 27.3387 102.429 27.6427 102.781 27.856C103.144 28.0693 103.528 28.176 103.933 28.176C104.349 28.176 104.739 28.0747 105.101 27.872C105.464 27.6587 105.752 27.36 105.965 26.976C106.179 26.5813 106.285 26.112 106.285 25.568ZM112.969 22.512C113.257 22.0427 113.63 21.6747 114.089 21.408C114.558 21.1413 115.092 21.008 115.689 21.008V23.36H115.097C114.393 23.36 113.86 23.5253 113.497 23.856C113.145 24.1867 112.969 24.7627 112.969 25.584V30H110.729V21.136H112.969V22.512ZM120.094 18.64L119.838 26.368H117.95L117.678 18.64H120.094ZM118.942 30.112C118.536 30.112 118.2 29.9893 117.934 29.744C117.678 29.488 117.55 29.1733 117.55 28.8C117.55 28.4267 117.678 28.1173 117.934 27.872C118.2 27.616 118.536 27.488 118.942 27.488C119.336 27.488 119.662 27.616 119.918 27.872C120.174 28.1173 120.302 28.4267 120.302 28.8C120.302 29.1733 120.174 29.488 119.918 29.744C119.662 29.9893 119.336 30.112 118.942 30.112Z" fill="#27374D" fill-opacity="0.5"/>
<path d="M6 24C6 14.059 14.059 6 24 6V8C15.163 8 8 15.163 8 24C8 32.837 15.163 40 24 40C32.837 40 40 32.837 40 24C40 22.401 39.766 20.858 39.33 19.401L41.245 18.826C41.7472 20.5047 42.0015 22.2478 42 24C42 33.941 33.941 42 24 42C14.059 42 6 33.941 6 24Z" fill="#1E0342" fill-opacity="0.5"/>
<path d="M18.53 13.952C18.3022 14.0856 18.1365 14.3038 18.069 14.5591C18.0015 14.8144 18.0377 15.086 18.1697 15.3147C18.3018 15.5434 18.5189 15.7106 18.7737 15.7797C19.0286 15.8489 19.3004 15.8145 19.53 15.684L20.466 15.143L20.015 18.893C19.9928 19.0773 20.0224 19.2641 20.1003 19.4326C20.1783 19.601 20.3016 19.7444 20.4565 19.8468C20.6114 19.9491 20.7916 20.0063 20.9772 20.012C21.1627 20.0177 21.3462 19.9717 21.507 19.879L24.509 18.146C24.6236 18.0808 24.7243 17.9936 24.8051 17.8894C24.8859 17.7851 24.9453 17.666 24.9798 17.5387C25.0144 17.4114 25.0234 17.2786 25.0064 17.1478C24.9894 17.017 24.9467 16.8909 24.8808 16.7767C24.8148 16.6625 24.7269 16.5624 24.6222 16.4823C24.5174 16.4022 24.3978 16.3436 24.2703 16.3099C24.1428 16.2762 24.0099 16.268 23.8793 16.2859C23.7486 16.3038 23.6228 16.3473 23.509 16.414L22.239 17.147L22.691 13.397C22.7132 13.2127 22.6836 13.0259 22.6057 12.8574C22.5277 12.689 22.4044 12.5456 22.2495 12.4432C22.0946 12.3409 21.9144 12.2837 21.7288 12.278C21.5433 12.2723 21.3598 12.3183 21.199 12.411L18.53 13.952ZM25.817 9.294C25.783 9.16714 25.7743 9.03483 25.7914 8.9046C25.8085 8.77438 25.8511 8.64881 25.9168 8.53505C25.9824 8.4213 26.0698 8.32159 26.174 8.24162C26.2782 8.16166 26.3971 8.103 26.524 8.069L30.388 7.034C30.5673 6.98595 30.7565 6.98878 30.9344 7.04217C31.1122 7.09556 31.2716 7.19741 31.3949 7.3363C31.5181 7.47519 31.6002 7.64564 31.632 7.82857C31.6638 8.01149 31.6441 8.19966 31.575 8.372L29.526 13.477L31.941 12.83C32.1944 12.7693 32.4614 12.8099 32.6853 12.9432C32.9092 13.0764 33.0723 13.2918 33.1398 13.5434C33.2073 13.795 33.1739 14.0631 33.0468 14.2905C32.9196 14.5179 32.7087 14.6867 32.459 14.761L28.112 15.926C27.9327 15.9741 27.7435 15.9712 27.5656 15.9178C27.3878 15.8644 27.2284 15.7626 27.1051 15.6237C26.9819 15.4848 26.8998 15.3144 26.868 15.1314C26.8362 14.9485 26.8559 14.7603 26.925 14.588L28.974 9.484L27.042 10.001C26.9151 10.035 26.7828 10.0437 26.6526 10.0266C26.5224 10.0095 26.3968 9.9669 26.2831 9.90125C26.1693 9.8356 26.0696 9.74818 25.9896 9.64398C25.9097 9.53979 25.851 9.42087 25.817 9.294ZM36.556 6C36.2908 6 36.0364 6.10536 35.8489 6.29289C35.6614 6.48043 35.556 6.73478 35.556 7C35.556 7.26522 35.6614 7.51957 35.8489 7.70711C36.0364 7.89464 36.2908 8 36.556 8H39.196L35.152 14.47C35.0574 14.6214 35.005 14.7953 35.0003 14.9738C34.9957 15.1522 35.0388 15.3286 35.1254 15.4848C35.2119 15.6409 35.3386 15.771 35.4924 15.8616C35.6462 15.9522 35.8215 16 36 16H41C41.2652 16 41.5196 15.8946 41.7071 15.7071C41.8946 15.5196 42 15.2652 42 15C42 14.7348 41.8946 14.4804 41.7071 14.2929C41.5196 14.1054 41.2652 14 41 14H37.804L41.848 7.53C41.9426 7.37863 41.995 7.20469 41.9997 7.02625C42.0043 6.8478 41.9612 6.67136 41.8746 6.51523C41.7881 6.3591 41.6614 6.22898 41.5076 6.13838C41.3538 6.04778 41.1785 6 41 6H36.556ZM12.888 27.106C12.964 27.849 13.631 28.403 14.404 28.649C15.212 28.905 16.259 28.884 17.371 28.402C17.8691 28.193 18.3168 27.8801 18.6845 27.4844C19.0521 27.0887 19.3312 26.6191 19.503 26.107C19.793 25.239 19.753 24.287 19.351 23.682C19.3045 23.612 19.2411 23.5549 19.1666 23.5159C19.0922 23.4769 19.0091 23.4573 18.9251 23.4589C18.8411 23.4605 18.7588 23.4832 18.6859 23.525C18.613 23.5668 18.5518 23.6263 18.508 23.698C17.214 25.809 15.364 26.738 13.433 26.558C13.3594 26.551 13.2852 26.5603 13.2157 26.5854C13.1462 26.6105 13.0831 26.6507 13.0309 26.7032C12.9788 26.7556 12.939 26.8189 12.9143 26.8885C12.8895 26.9582 12.8806 27.0325 12.888 27.106ZM32.28 21.91C32.586 22.591 32.286 23.404 31.74 24.004C31.168 24.63 30.25 25.134 29.047 25.274C28.5109 25.3421 27.9665 25.2951 27.45 25.1361C26.9336 24.9771 26.457 24.7098 26.052 24.352C25.368 23.745 24.927 22.902 24.972 22.176C24.9772 22.0921 25.0036 22.0109 25.0485 21.9399C25.0934 21.8688 25.1556 21.8103 25.2291 21.7696C25.3027 21.7289 25.3853 21.7075 25.4693 21.7072C25.5534 21.7069 25.6362 21.7278 25.71 21.768C27.886 22.95 29.953 22.829 31.535 21.707C31.5952 21.6643 31.6642 21.6355 31.7369 21.6227C31.8096 21.6098 31.8842 21.6132 31.9554 21.6326C32.0266 21.652 32.0927 21.687 32.1488 21.7349C32.2049 21.7829 32.2497 21.8427 32.28 21.91ZM32.448 31.855C30.197 28.771 26.861 27.14 23.741 27.976C20.621 28.813 18.547 31.892 18.14 35.689C18.025 36.758 19.063 37.512 20.101 37.234L31.521 34.174C32.56 33.895 33.081 32.724 32.448 31.855Z" fill="#1E0342" fill-opacity="0.5"/>
</svg>
