<svg width="42" height="46" viewBox="0 0 42 46" fill="none" xmlns="http://www.w3.org/2000/svg">
<path d="M1 44.3124C5.85437 42.9532 11.6796 41.594 12.2621 35.1862M12.2621 35.1862C11.0971 33.7623 7.99029 30.72 7.46076 26.7027M12.2621 35.1862C13.8803 36.3512 17.8932 38.6811 21 38.6811C24.1068 38.6811 28.1197 36.3512 29.7379 35.1862M7.99029 26.8367C5.27184 26.4481 1.58252 21.0112 5.07767 17.5163C5.07767 15.8538 4.97239 14.6123 4.96984 13.6326M7.99029 9.55491C5.38563 10.727 4.96465 11.6371 4.96984 13.6326M10.3204 16.7394C9.2129 16.4805 6.59232 15.4967 4.96984 13.6326M41 44.3124C36.1456 42.9532 30.3204 41.594 29.7379 35.1862M29.7379 35.1862C30.9029 33.7623 33.6214 30.1374 34.5922 26.6832M34.0097 26.8367C36.7282 26.4481 40.4175 21.0112 36.9223 17.5163C36.9223 15.8538 37.0276 14.6123 37.0302 13.6326M37.0302 13.6326C37.0353 11.6371 36.6144 10.727 34.0097 9.55491M37.0302 13.6326C35.4077 15.4967 28.9612 18.8753 14.0097 17.5163M16.1456 31.6908C16.1456 31.6908 17.5049 30.5258 20.9029 30.5258C24.301 30.5258 25.6602 31.6908 25.6602 31.6908M14.2467 11.7109C14.6334 12.3604 15.1347 12.9532 15.7361 13.4907C16.2719 13.9696 17.3215 13.4715 17.5428 13.2505C17.8671 12.9264 18.3121 12.6878 18.5581 12.3028C18.7412 12.0165 19.6512 11.7482 19.9766 11.5621C19.9846 11.5575 19.9926 11.553 20.0006 11.5485M14.2467 11.7109C13.9186 11.1597 13.673 10.5677 13.5188 9.93378C13.1677 8.49019 14.7648 8.18109 15.9601 8.20537C17.6662 8.24003 17.14 10.0905 16.2139 10.7212C15.7124 11.0628 14.9882 11.5283 14.2467 11.7109ZM14.2467 11.7109C13.7934 11.8225 13.3335 11.8283 12.9141 11.6355C11.7292 11.0908 12.155 9.68884 11.9062 8.79931C11.7434 8.21727 12.2237 7.33353 12.6752 6.91073C13.1159 6.49805 13.6883 5.691 14.2878 5.46928C15.3575 5.07362 16.1526 4.916 17.2143 5.49597C18.7299 6.32385 19.5749 9.65733 20.0006 11.5485M20.0006 11.5485C20.0673 11.8449 20.1236 12.1059 20.1707 12.3162C21.1942 14.2151 25.4377 14.0939 26.86 12.9168C27.3699 12.4948 27.4797 11.8305 27.3802 11.1869M20.0006 11.5485C20.5536 11.2381 21.1869 11.0828 21.7236 10.7546C22.0584 10.5498 23.3959 10.1007 23.3959 9.70689C23.3959 8.81439 23.2441 8.27648 22.3507 7.79162C21.584 7.37552 21.0557 7.36452 20.1707 7.36452C19.6566 7.36452 18.8325 6.79692 18.588 6.40355C18.372 6.05601 18.411 5.65554 18.4237 5.26908C18.4365 4.88118 18.4787 4.23512 18.6328 3.88101C19.0361 2.95402 20.1122 1.62355 21.3354 1.5987C22.5819 1.57338 24.2768 1.61872 25.2623 2.37949C26.0747 3.00662 25.9002 3.89142 25.2772 4.62843C24.4473 5.61025 23.799 6.19898 23.799 7.4713C23.799 8.4782 24.1474 9.61818 25.0383 10.3008C25.6969 10.8054 25.9333 11.2084 26.845 11.2084C27.0184 11.2084 27.1984 11.2022 27.3802 11.1869M27.3802 11.1869C27.3063 10.7084 27.1167 10.2414 26.8898 9.89374C26.3243 9.02723 25.5881 7.67043 26.2926 6.69718C27.9444 4.41521 30.768 8.67506 29.3535 10.3609C28.8907 10.9124 28.1211 11.1247 27.3802 11.1869Z" stroke="#F5F5F7" stroke-width="1.5" stroke-linecap="round" stroke-linejoin="round"/>
</svg>
