<svg width="49" height="45" viewBox="0 0 49 45" fill="none" xmlns="http://www.w3.org/2000/svg">
<path d="M16.2719 18.5363H32.7278M16.2719 26.4638H28.0074M24.4999 39.8438C28.6024 39.843 32.593 38.6153 35.8683 36.3466C39.1435 34.0778 41.5253 30.8912 42.6533 27.2689C43.7813 23.6465 43.5943 19.7853 42.1204 16.2692C40.6466 12.7531 37.9661 9.77342 34.4844 7.78071C31.0027 5.78801 26.9091 4.89069 22.8227 5.22446C18.7364 5.55823 14.8795 7.10494 11.8354 9.63067C8.79123 12.1564 6.72545 15.5238 5.95043 19.2235C5.17541 22.9233 5.7333 26.7542 7.53973 30.1369C7.76023 30.5494 7.83373 31.0144 7.72144 31.4606L6.05544 38.0906C6.00847 38.2767 6.01386 38.4707 6.07109 38.6543C6.12833 38.8379 6.23552 39.0052 6.38258 39.1402C6.52964 39.2753 6.71172 39.3737 6.91167 39.4263C7.11161 39.4788 7.32284 39.4838 7.52544 39.4406L14.7427 37.9088C15.23 37.8108 15.7392 37.8704 16.1841 38.0775C18.7717 39.2445 21.6171 39.8489 24.4999 39.8438Z" stroke="#27374D" stroke-width="3.4375" stroke-linecap="round" stroke-linejoin="round"/>
</svg>
