<svg width="26" height="26" viewBox="0 0 26 26" fill="none" xmlns="http://www.w3.org/2000/svg">
<path d="M2 13C2 10.0826 3.15893 7.28473 5.22183 5.22183C7.28473 3.15893 10.0826 2 13 2C15.9174 2 18.7153 3.15893 20.7782 5.22183C22.8411 7.28473 24 10.0826 24 13V19.9988C24 21.1648 24 21.745 23.8268 22.2111C23.689 22.5805 23.4734 22.9159 23.1947 23.1947C22.9159 23.4734 22.5805 23.689 22.2111 23.8268C21.745 24 21.1634 24 19.9988 24H13C10.0826 24 7.28473 22.8411 5.22183 20.7782C3.15893 18.7153 2 15.9174 2 13Z" stroke="#27374D" stroke-width="2.5"/>
<path d="M8.875 11.625H17.125M13 17.125H17.125" stroke="#27374D" stroke-width="2.5" stroke-linecap="round" stroke-linejoin="round"/>
</svg>
