<svg width="42" height="41" viewBox="0 0 42 41" fill="none" xmlns="http://www.w3.org/2000/svg">
<path d="M14.0635 39.5965C14.0635 39.5965 14.497 37.133 13.6297 36.7224C12.7624 36.3118 1.49086 31.7954 1.05733 30.9742C0.623795 30.1531 2.79145 18.6567 2.79145 18.6567C2.79145 18.6567 3.22498 16.6037 5.39264 16.6037C7.56029 16.6037 7.99407 18.2461 7.99407 19.0672C7.99407 19.8884 7.12651 25.6366 7.99382 26.4578C8.86113 27.2789 12.8494 28.4286 16.6644 28.1001M27.9365 39.5965C27.9365 39.5965 27.503 37.133 28.3703 36.7224C29.2376 36.3118 40.5091 31.7954 40.9427 30.9742C41.3762 30.1531 39.2086 18.6567 39.2086 18.6567C39.2086 18.6567 38.775 16.6037 36.6074 16.6037C34.4397 16.6037 34.0059 18.2461 34.0059 19.0672C34.0059 19.8884 34.8735 25.6366 34.0062 26.4578C33.1389 27.2789 29.1506 28.4286 25.3356 28.1001M36.1169 11.6777L34.783 12.3093M34.783 12.3093L33.5158 12.9094M34.783 12.3093L36.1169 13.32M34.783 12.3093L33.9493 11.6777M30.9136 9.24228L31.863 8.34343M32.8812 7.37935L33.9493 6.36807L34.8488 5.51642M11.8395 6.29416C11.697 5.18255 10.6788 4.57773 9.59664 4.52171C9.24049 4.50327 8.94012 4.55661 8.69188 4.65333M8.69188 4.65333C7.99727 4.92395 7.71085 5.53418 7.75286 5.86176C7.80987 6.3064 9.1911 6.59875 9.40812 5.67139C9.51315 5.22263 9.1597 4.87942 8.69188 4.65333ZM8.69188 4.65333C8.19296 4.4122 7.56396 4.30428 7.22226 4.34358M26.8895 5.24559C26.5358 4.1771 27.2004 3.22871 28.1621 2.75539C28.4786 2.59962 28.7755 2.53102 29.0437 2.52228M29.0437 2.52228C29.7944 2.49782 30.3208 2.94209 30.4251 3.25696C30.5666 3.68436 29.4352 4.4897 28.834 3.7294C28.5431 3.36147 28.7158 2.91083 29.0437 2.52228ZM29.0437 2.52228C29.3934 2.10789 29.9196 1.76412 30.2481 1.66659M6.20237 12.4964L7.53631 11.8647M7.53631 11.8647L8.80356 11.2646M7.53631 11.8647L6.20237 10.854M7.53631 11.8647L8.37003 12.4964M16.9856 4.60581L16.476 3.73593M15.9293 2.80291L15.3559 1.8242L14.873 1M23.6182 24.4708C25.137 24.0611 26.5011 23.3038 27.6087 22.2955C28.4795 21.5028 29.1917 20.555 29.6957 19.4989C30.2366 18.3654 30.5377 17.1073 30.5377 15.7826C30.5377 10.7939 26.2675 6.74972 21 6.74972C15.7325 6.74972 11.4623 10.7939 11.4623 15.7826C11.4623 19.7328 14.1397 23.0907 17.8696 24.3176" stroke="#F5F5F7" stroke-width="1.5" stroke-linecap="round" stroke-linejoin="round"/>
</svg>
