<svg width="26" height="25" viewBox="0 0 26 25" fill="none" xmlns="http://www.w3.org/2000/svg">
<path d="M15 15.96H11C10.4477 15.96 10 16.4077 10 16.96V22C10 22.5523 9.55228 23 9 23H3C2.44772 23 2 22.5523 2 22V11.1321C2 10.8447 2.12363 10.5712 2.33937 10.3814L12.3394 1.58135C12.7171 1.24897 13.2829 1.24897 13.6606 1.58135L23.6606 10.3814C23.8764 10.5712 24 10.8447 24 11.1321V22C24 22.5523 23.5523 23 23 23H17C16.4477 23 16 22.5523 16 22V16.96C16 16.4077 15.5523 15.96 15 15.96Z" stroke="#27374D" stroke-width="2.5" stroke-linecap="round" stroke-linejoin="round"/>
</svg>
