<svg width="30" height="26" viewBox="0 0 30 26" fill="none" xmlns="http://www.w3.org/2000/svg">
<path d="M25 23.8333V20.5833C25 17.5196 25 15.9867 23.9013 15.0355C22.8038 14.0833 21.035 14.0833 17.5 14.0833L15 16.2499L12.5 14.0833C8.965 14.0833 7.19625 14.0833 6.09875 15.0355C5 15.9867 5 17.5196 5 20.5833V23.8333M20 14.0833V20.0416" stroke="#27374D" stroke-width="2" stroke-linecap="round" stroke-linejoin="round"/>
<path d="M10.625 14.0833V18.4166M10.625 18.4166C11.288 18.4166 11.9239 18.6449 12.3928 19.0512C12.8616 19.4576 13.125 20.0087 13.125 20.5833V21.6666M10.625 18.4166C9.96196 18.4166 9.32607 18.6449 8.85723 19.0512C8.38839 19.4576 8.125 20.0087 8.125 20.5833V21.6666M19.375 7.04163V5.95829C19.375 5.46036 19.2618 4.96731 19.042 4.50728C18.8221 4.04726 18.4998 3.62927 18.0936 3.27718C17.6873 2.92509 17.205 2.6458 16.6742 2.45525C16.1434 2.2647 15.5745 2.16663 15 2.16663C14.4255 2.16663 13.8566 2.2647 13.3258 2.45525C12.795 2.6458 12.3127 2.92509 11.9064 3.27718C11.5002 3.62927 11.1779 4.04726 10.958 4.50728C10.7382 4.96731 10.625 5.46036 10.625 5.95829V7.04163C10.625 7.53955 10.7382 8.03261 10.958 8.49263C11.1779 8.95266 11.5002 9.37065 11.9064 9.72274C12.3127 10.0748 12.795 10.3541 13.3258 10.5447C13.8566 10.7352 14.4255 10.8333 15 10.8333C15.5745 10.8333 16.1434 10.7352 16.6742 10.5447C17.205 10.3541 17.6873 10.0748 18.0936 9.72274C18.4998 9.37065 18.8221 8.95266 19.042 8.49263C19.2618 8.03261 19.375 7.53955 19.375 7.04163ZM20.9375 20.8541C20.9375 21.0696 20.8387 21.2763 20.6629 21.4287C20.4871 21.581 20.2486 21.6666 20 21.6666C19.7514 21.6666 19.5129 21.581 19.3371 21.4287C19.1613 21.2763 19.0625 21.0696 19.0625 20.8541C19.0625 20.6386 19.1613 20.432 19.3371 20.2796C19.5129 20.1272 19.7514 20.0416 20 20.0416C20.2486 20.0416 20.4871 20.1272 20.6629 20.2796C20.8387 20.432 20.9375 20.6386 20.9375 20.8541Z" stroke="#27374D" stroke-width="2" stroke-linecap="round" stroke-linejoin="round"/>
</svg>
