<svg width="26" height="26" viewBox="0 0 26 26" fill="none" xmlns="http://www.w3.org/2000/svg">
<path d="M3.15789 7.78947H22.8421M2.57895 7.78947H23.4211M2 12.7024C2 7.65747 2 5.13442 3.44968 3.56663C4.89937 2 7.23368 2 11.9 2H14.1C18.7663 2 21.1006 2 22.5503 3.56779C24 5.13442 24 7.65747 24 12.7036V13.2976C24 18.3425 24 20.8656 22.5503 22.4334C21.1006 24 18.7663 24 14.1 24H11.9C7.23368 24 4.89937 24 3.44968 22.4322C2 20.8656 2 18.3425 2 13.2964V12.7024Z" stroke="#27374D" stroke-width="2.5" stroke-linecap="round" stroke-linejoin="round"/>
</svg>
