<svg width="42" height="41" viewBox="0 0 42 41" fill="none" xmlns="http://www.w3.org/2000/svg">
<path d="M1.0717 39.7195C1.07172 26.3375 -0.300828 21.5337 8.96367 17.7593M5.53237 32.5138L14.7968 21.1906C18.5713 17.7593 22.6888 22.5631 19.6007 25.9944C18.5713 27.3669 12.0518 35.602 8.27742 40.0627M40.9283 39.7195C40.9283 34.6333 41.1266 30.7863 40.8637 27.7641M33.0363 17.7593C36.1927 19.0452 38.1144 20.4506 39.2763 22.274M36.0709 32.5138L26.1201 20.5043C23.032 17.4162 18.2282 21.5337 21.7131 25.3081C22.7425 26.6806 29.2619 34.9157 33.0363 39.3764M28.1789 21.5337C29.5514 19.6122 30.0089 16.6155 29.8945 15.3574C29.8945 10.4303 25.5572 6.43603 20.6301 6.43603C15.7029 6.43603 11.7087 10.4303 11.7087 15.3574C11.7087 16.7299 12.0518 19.8867 13.4244 21.5337M31.9989 9.43801L35.0956 7.80854L35.0579 10.0381L38.2724 8.4948M7.97986 9.81475L4.93111 7.80854L4.96824 10.5536L1.80354 8.65347M27.0064 3.73523L29.4623 1.03551L30.1072 3.70397L32.7017 1.07827M11.6922 4.98658L9.98272 1.76208L8.69609 4.18718L6.83394 1" stroke="#F5F5F7" stroke-width="1.5" stroke-linecap="round" stroke-linejoin="round"/>
</svg>
