<svg width="42" height="27" viewBox="0 0 42 27" fill="none" xmlns="http://www.w3.org/2000/svg">
<path d="M7 0C5.14348 0 3.36301 0.711158 2.05025 1.97703C0.737498 3.2429 0 4.95979 0 6.75V20.25C0 22.0402 0.737498 23.7571 2.05025 25.023C3.36301 26.2888 5.14348 27 7 27H22.75C24.6065 27 26.387 26.2888 27.6997 25.023C29.0125 23.7571 29.75 22.0402 29.75 20.25V19.7843L39.382 25.0898C39.6481 25.2363 39.9495 25.3129 40.2559 25.3119C40.5624 25.3109 40.8632 25.2324 41.1282 25.0841C41.3933 24.9358 41.6134 24.7229 41.7663 24.4669C41.9193 24.2108 41.9999 23.9205 42 23.625V3.375C41.9999 3.07949 41.9193 2.78918 41.7663 2.53313C41.6134 2.27707 41.3933 2.06424 41.1282 1.91594C40.8632 1.76763 40.5624 1.68905 40.2559 1.68805C39.9495 1.68706 39.6481 1.76368 39.382 1.91025L29.75 7.21575V6.75C29.75 4.95979 29.0125 3.2429 27.6997 1.97703C26.387 0.711158 24.6065 0 22.75 0H7ZM29.75 11.1038L38.5 6.28425V20.7157L29.75 15.8962V11.1038ZM3.5 6.75C3.5 5.85489 3.86875 4.99645 4.52513 4.36352C5.1815 3.73058 6.07174 3.375 7 3.375H22.75C23.6783 3.375 24.5685 3.73058 25.2249 4.36352C25.8813 4.99645 26.25 5.85489 26.25 6.75V20.25C26.25 21.1451 25.8813 22.0035 25.2249 22.6365C24.5685 23.2694 23.6783 23.625 22.75 23.625H7C6.07174 23.625 5.1815 23.2694 4.52513 22.6365C3.86875 22.0035 3.5 21.1451 3.5 20.25V6.75Z" fill="#1E0342"/>
</svg>
